<svg xmlns="http://www.w3.org/2000/svg" viewBox="0 0 64 64">
  <rect width="64" height="64" rx="12" fill="#1A2922"/>
  <g transform="translate(9 23.75) scale(0.02396)" fill="#E6EFEB">
    <path d="M46.0312 674.457C18.0515 674.457 4.51287 668.136 4.51287 650.982C4.51287 624.798 55.057 624.798 55.057 588.682V123.696C55.9596 108.346 49.6415 99.3176 42.421 93.9003C13.5386 78.5512 0 73.1339 0 55.0761C0 33.4068 88.4522 0 116.432 0C147.119 0 154.34 13.5433 155.243 43.3386V295.244H157.95C188.638 246.488 237.377 210.373 306.875 210.373C443.164 210.373 462.118 307.885 462.118 445.123V588.682C462.118 624.798 512.662 625.701 512.662 651.884C512.662 669.039 498.221 675.36 471.143 675.36H349.296C321.316 675.36 307.778 669.039 307.778 651.884C307.778 625.701 358.322 624.798 358.322 588.682V448.735C358.322 340.388 327.634 287.118 266.259 287.118C195.858 287.118 159.755 346.709 159.755 424.357L158.853 587.78C158.853 623.895 209.397 624.798 209.397 650.982C209.397 668.136 194.956 674.457 167.879 674.457H46.0312Z"/>
    <path d="M710.305 677.165C569.504 677.165 549.647 582.362 549.647 464.084V324.136C549.647 313.302 545.134 305.176 537.914 300.661C509.934 285.312 495.493 280.798 495.493 263.643C495.493 256.42 502.713 248.294 513.544 241.071C545.134 223.916 596.581 210.373 611.925 210.373C645.32 210.373 652.54 224.819 653.443 257.323V464.987C653.443 544.441 672.397 600.42 740.09 600.42C818.614 600.42 852.009 540.829 852.009 464.084L852.912 324.136C852.912 313.302 848.399 305.176 841.178 300.661C813.198 285.312 798.757 280.798 798.757 263.643C798.757 256.42 805.075 249.197 815.906 241.974C842.983 224.819 898.04 210.373 914.287 210.373C947.682 210.373 955.805 224.819 955.805 258.226V553.47C954.902 568.819 961.22 577.848 968.441 583.265C997.323 598.614 1010.86 604.031 1010.86 622.089C1010.86 643.759 929.63 677.165 895.333 677.165C864.645 677.165 857.424 663.622 856.522 633.827V592.294H852.912C814.101 651.884 764.459 677.165 710.305 677.165Z"/>
    <path d="M1261.88 688C1111.15 688 1020.9 586.877 1020.9 456.861C1020.9 305.176 1124.69 209.47 1260.08 209.47C1363.87 209.47 1441.5 275.381 1441.5 329.554C1441.5 357.543 1423.44 377.407 1395.46 377.407C1354.85 377.407 1340.41 338.583 1318.75 306.079C1300.69 278.992 1281.74 255.517 1235.71 255.517C1165.31 255.517 1129.2 326.845 1129.2 404.493C1129.2 515.549 1191.48 604.934 1284.45 604.934C1342.21 604.934 1375.61 581.459 1402.68 553.47C1411.71 544.441 1418.03 540.829 1426.15 540.829C1437.89 540.829 1445.11 550.761 1445.11 560.693C1445.11 571.528 1441.5 580.556 1437.88 588.682C1418.93 630.215 1362.97 688 1261.88 688Z"/>
    <path d="M1869.46 596.808C1884.8 622.089 1920 619.381 1920 648.273C1920 666.331 1907.36 674.457 1885.7 674.457H1759.34C1734.97 674.457 1725.04 660.913 1725.04 646.467C1725.04 625.701 1750.32 622.992 1750.32 611.255C1750.32 601.323 1740.39 586.877 1725.95 564.304L1674.5 485.753C1651.94 494.782 1629.37 502.908 1606.81 510.131V587.78C1606.81 623.895 1657.35 624.798 1657.35 650.982C1657.35 668.136 1643.81 674.457 1615.83 674.457H1493.99C1466.01 674.457 1452.47 668.136 1452.47 650.982C1452.47 624.798 1503.01 623.895 1503.01 587.78V129.113C1503.01 107.444 1497.6 96.6089 1484.06 85.7743C1459.69 67.7165 1447.05 66.8136 1447.05 49.6588C1447.05 24.378 1540.02 0 1567.09 0C1596.88 0 1605.9 15.3491 1605.9 44.2415L1606.81 455.958C1702.48 427.066 1796.35 371.087 1796.35 332.262C1796.35 314.205 1756.63 312.399 1756.63 269.06C1756.63 228.43 1790.03 209.47 1822.52 209.47C1857.72 209.47 1885.7 233.848 1885.7 275.381C1885.7 344 1832.45 399.979 1761.15 442.415L1869.46 596.808Z"/>
  </g>
</svg>
